<svg xmlns="http://www.w3.org/2000/svg" width="96" height="96" viewBox="0 0 96 96">
  <circle cx="48" cy="48" r="45" fill="#152426" stroke="#8fb99b" stroke-width="3"/>
  <path d="M20 79c3-17 14-25 28-25s25 8 28 25" fill="#344b3d" stroke="#d8c47a" stroke-width="3" stroke-linejoin="round"/>
  <path d="M29 40c0-16 8-25 19-25s19 9 19 25v7H29z" fill="#718474" stroke="#dce6d6" stroke-width="3"/>
  <path d="M27 36c2-16 10-24 21-24s19 8 21 24c-9-5-14-10-18-16-5 8-13 13-24 16z" fill="#b6c2ae" stroke="#dce6d6" stroke-width="2"/>
  <path d="M37 43h4m14 0h4M43 51c3 2 7 2 10 0" fill="none" stroke="#17211e" stroke-width="3" stroke-linecap="round"/>
  <path d="M48 57v14m0 0-10 9m10-9 10 9" fill="none" stroke="#e0c66d" stroke-width="3" stroke-linecap="round"/>
</svg>
