<svg xmlns="http://www.w3.org/2000/svg" width="1400" height="930" viewBox="0 0 1400 930">
<title>角色原型：玩家、三类敌人、两阶段首领</title>
<rect width="100%" height="100%" fill="#FFF8E8"/>
<rect width="100%" height="9" fill="#59CFA7"/>
<text x="42" y="62" font-size="32" font-weight="800" fill="#263F52" font-family="PingFang SC, Noto Sans CJK SC, sans-serif">01 角色原型</text>
<text x="43" y="92" font-size="16" font-weight="400" fill="#5D7480" font-family="PingFang SC, Noto Sans CJK SC, sans-serif">头身约 1:1｜统一源像素语法｜方向由面罩 + 枪口同时传达</text>
<rect x="40" y="120" width="850" height="510" rx="13" fill="#FFFFFF" stroke="#263F52" stroke-width="2"/>
<text x="58" y="151" font-size="20" font-weight="700" fill="#263F52" font-family="PingFang SC, Noto Sans CJK SC, sans-serif">前哨空降兵 · 八方向</text>
<text x="58" y="174" font-size="13" font-weight="400" fill="#5D7480" font-family="PingFang SC, Noto Sans CJK SC, sans-serif">24×32 px 起点；白色 V、薄荷头盔、黄色围巾始终可识别</text>
<rect x="70" y="215" width="160" height="152" rx="8" fill="#F4EBCF" stroke="#D7CFB2" stroke-width="1"/>
<g transform="translate(100 230) scale(3.1)" shape-rendering="crispEdges">
<ellipse cx="16" cy="30" rx="11" ry="3" fill="#5D9F9D" opacity="0.4"/>
<rect x="7" y="17" width="18" height="12" rx="0" fill="#263F52"/>
<rect x="9" y="18" width="14" height="10" rx="0" fill="#59CFA7"/>
<rect x="9" y="27" width="5" height="3" rx="0" fill="#263F52"/>
<rect x="19" y="27" width="5" height="3" rx="0" fill="#263F52"/>
<rect x="6" y="4" width="21" height="15" rx="0" fill="#263F52"/>
<rect x="8" y="6" width="17" height="11" rx="0" fill="#59CFA7"/>
<rect x="10" y="4" width="13" height="3" rx="0" fill="#95E8C9"/>
<path d="M12 11l4 3 4-3" fill="none" stroke="#FFF8E8" stroke-width="2" />
<rect x="14" y="18" width="7" height="3" rx="0" fill="#FFCA70"/>
<g transform="rotate(90 16 17)" shape-rendering="crispEdges">
<rect x="17" y="14" width="12" height="6" rx="0" fill="#263F52"/>
<rect x="19" y="15" width="8" height="4" rx="0" fill="#879CA4"/>
<rect x="28" y="15" width="4" height="4" rx="0" fill="#263F52"/>
</g>
</g>
<text x="150" y="352" font-size="17" font-weight="700" fill="#263F52" font-family="PingFang SC, Noto Sans CJK SC, sans-serif" text-anchor="middle">下</text>
<rect x="274" y="215" width="160" height="152" rx="8" fill="#F4EBCF" stroke="#D7CFB2" stroke-width="1"/>
<g transform="translate(304 230) scale(3.1)" shape-rendering="crispEdges">
<ellipse cx="16" cy="30" rx="11" ry="3" fill="#5D9F9D" opacity="0.4"/>
<rect x="7" y="17" width="18" height="12" rx="0" fill="#263F52"/>
<rect x="9" y="18" width="14" height="10" rx="0" fill="#59CFA7"/>
<rect x="9" y="27" width="5" height="3" rx="0" fill="#263F52"/>
<rect x="19" y="27" width="5" height="3" rx="0" fill="#263F52"/>
<rect x="6" y="4" width="21" height="15" rx="0" fill="#263F52"/>
<rect x="8" y="6" width="17" height="11" rx="0" fill="#59CFA7"/>
<rect x="10" y="4" width="13" height="3" rx="0" fill="#95E8C9"/>
<path d="M12 11l4 3 4-3" fill="none" stroke="#FFF8E8" stroke-width="2" />
<rect x="14" y="18" width="7" height="3" rx="0" fill="#FFCA70"/>
<g transform="rotate(45 16 17)" shape-rendering="crispEdges">
<rect x="17" y="14" width="12" height="6" rx="0" fill="#263F52"/>
<rect x="19" y="15" width="8" height="4" rx="0" fill="#879CA4"/>
<rect x="28" y="15" width="4" height="4" rx="0" fill="#263F52"/>
</g>
</g>
<text x="354" y="352" font-size="17" font-weight="700" fill="#263F52" font-family="PingFang SC, Noto Sans CJK SC, sans-serif" text-anchor="middle">右下</text>
<rect x="478" y="215" width="160" height="152" rx="8" fill="#F4EBCF" stroke="#D7CFB2" stroke-width="1"/>
<g transform="translate(508 230) scale(3.1)" shape-rendering="crispEdges">
<ellipse cx="16" cy="30" rx="11" ry="3" fill="#5D9F9D" opacity="0.4"/>
<rect x="7" y="17" width="18" height="12" rx="0" fill="#263F52"/>
<rect x="9" y="18" width="14" height="10" rx="0" fill="#59CFA7"/>
<rect x="9" y="27" width="5" height="3" rx="0" fill="#263F52"/>
<rect x="19" y="27" width="5" height="3" rx="0" fill="#263F52"/>
<rect x="6" y="4" width="21" height="15" rx="0" fill="#263F52"/>
<rect x="8" y="6" width="17" height="11" rx="0" fill="#59CFA7"/>
<rect x="10" y="4" width="13" height="3" rx="0" fill="#95E8C9"/>
<rect x="21" y="10" width="3" height="4" rx="0" fill="#FFF8E8"/>
<rect x="11" y="18" width="8" height="3" rx="0" fill="#FFCA70"/>
<g transform="rotate(0 16 17)" shape-rendering="crispEdges">
<rect x="17" y="14" width="12" height="6" rx="0" fill="#263F52"/>
<rect x="19" y="15" width="8" height="4" rx="0" fill="#879CA4"/>
<rect x="28" y="15" width="4" height="4" rx="0" fill="#263F52"/>
</g>
</g>
<text x="558" y="352" font-size="17" font-weight="700" fill="#263F52" font-family="PingFang SC, Noto Sans CJK SC, sans-serif" text-anchor="middle">右</text>
<rect x="682" y="215" width="160" height="152" rx="8" fill="#F4EBCF" stroke="#D7CFB2" stroke-width="1"/>
<g transform="translate(712 230) scale(3.1)" shape-rendering="crispEdges">
<ellipse cx="16" cy="30" rx="11" ry="3" fill="#5D9F9D" opacity="0.4"/>
<rect x="7" y="17" width="18" height="12" rx="0" fill="#263F52"/>
<rect x="9" y="18" width="14" height="10" rx="0" fill="#59CFA7"/>
<rect x="9" y="27" width="5" height="3" rx="0" fill="#263F52"/>
<rect x="19" y="27" width="5" height="3" rx="0" fill="#263F52"/>
<rect x="6" y="4" width="21" height="15" rx="0" fill="#263F52"/>
<rect x="8" y="6" width="17" height="11" rx="0" fill="#59CFA7"/>
<rect x="10" y="4" width="13" height="3" rx="0" fill="#95E8C9"/>
<rect x="12" y="9" width="10" height="3" rx="0" fill="#339D83"/>
<rect x="14" y="18" width="7" height="3" rx="0" fill="#FFCA70"/>
<g transform="rotate(-45 16 17)" shape-rendering="crispEdges">
<rect x="17" y="14" width="12" height="6" rx="0" fill="#263F52"/>
<rect x="19" y="15" width="8" height="4" rx="0" fill="#879CA4"/>
<rect x="28" y="15" width="4" height="4" rx="0" fill="#263F52"/>
</g>
</g>
<text x="762" y="352" font-size="17" font-weight="700" fill="#263F52" font-family="PingFang SC, Noto Sans CJK SC, sans-serif" text-anchor="middle">右上</text>
<rect x="70" y="409" width="160" height="152" rx="8" fill="#F4EBCF" stroke="#D7CFB2" stroke-width="1"/>
<g transform="translate(100 424) scale(3.1)" shape-rendering="crispEdges">
<ellipse cx="16" cy="30" rx="11" ry="3" fill="#5D9F9D" opacity="0.4"/>
<rect x="7" y="17" width="18" height="12" rx="0" fill="#263F52"/>
<rect x="9" y="18" width="14" height="10" rx="0" fill="#59CFA7"/>
<rect x="9" y="27" width="5" height="3" rx="0" fill="#263F52"/>
<rect x="19" y="27" width="5" height="3" rx="0" fill="#263F52"/>
<rect x="6" y="4" width="21" height="15" rx="0" fill="#263F52"/>
<rect x="8" y="6" width="17" height="11" rx="0" fill="#59CFA7"/>
<rect x="10" y="4" width="13" height="3" rx="0" fill="#95E8C9"/>
<rect x="12" y="9" width="10" height="3" rx="0" fill="#339D83"/>
<rect x="14" y="18" width="7" height="3" rx="0" fill="#FFCA70"/>
<g transform="rotate(-90 16 17)" shape-rendering="crispEdges">
<rect x="17" y="14" width="12" height="6" rx="0" fill="#263F52"/>
<rect x="19" y="15" width="8" height="4" rx="0" fill="#879CA4"/>
<rect x="28" y="15" width="4" height="4" rx="0" fill="#263F52"/>
</g>
</g>
<text x="150" y="546" font-size="17" font-weight="700" fill="#263F52" font-family="PingFang SC, Noto Sans CJK SC, sans-serif" text-anchor="middle">上</text>
<rect x="274" y="409" width="160" height="152" rx="8" fill="#F4EBCF" stroke="#D7CFB2" stroke-width="1"/>
<g transform="translate(304 424) scale(3.1)" shape-rendering="crispEdges">
<ellipse cx="16" cy="30" rx="11" ry="3" fill="#5D9F9D" opacity="0.4"/>
<rect x="7" y="17" width="18" height="12" rx="0" fill="#263F52"/>
<rect x="9" y="18" width="14" height="10" rx="0" fill="#59CFA7"/>
<rect x="9" y="27" width="5" height="3" rx="0" fill="#263F52"/>
<rect x="19" y="27" width="5" height="3" rx="0" fill="#263F52"/>
<rect x="6" y="4" width="21" height="15" rx="0" fill="#263F52"/>
<rect x="8" y="6" width="17" height="11" rx="0" fill="#59CFA7"/>
<rect x="10" y="4" width="13" height="3" rx="0" fill="#95E8C9"/>
<rect x="12" y="9" width="10" height="3" rx="0" fill="#339D83"/>
<rect x="14" y="18" width="7" height="3" rx="0" fill="#FFCA70"/>
<g transform="rotate(-135 16 17)" shape-rendering="crispEdges">
<rect x="17" y="14" width="12" height="6" rx="0" fill="#263F52"/>
<rect x="19" y="15" width="8" height="4" rx="0" fill="#879CA4"/>
<rect x="28" y="15" width="4" height="4" rx="0" fill="#263F52"/>
</g>
</g>
<text x="354" y="546" font-size="17" font-weight="700" fill="#263F52" font-family="PingFang SC, Noto Sans CJK SC, sans-serif" text-anchor="middle">左上</text>
<rect x="478" y="409" width="160" height="152" rx="8" fill="#F4EBCF" stroke="#D7CFB2" stroke-width="1"/>
<g transform="translate(508 424) scale(3.1)" shape-rendering="crispEdges">
<ellipse cx="16" cy="30" rx="11" ry="3" fill="#5D9F9D" opacity="0.4"/>
<rect x="7" y="17" width="18" height="12" rx="0" fill="#263F52"/>
<rect x="9" y="18" width="14" height="10" rx="0" fill="#59CFA7"/>
<rect x="9" y="27" width="5" height="3" rx="0" fill="#263F52"/>
<rect x="19" y="27" width="5" height="3" rx="0" fill="#263F52"/>
<rect x="6" y="4" width="21" height="15" rx="0" fill="#263F52"/>
<rect x="8" y="6" width="17" height="11" rx="0" fill="#59CFA7"/>
<rect x="10" y="4" width="13" height="3" rx="0" fill="#95E8C9"/>
<rect x="9" y="10" width="3" height="4" rx="0" fill="#FFF8E8"/>
<rect x="17" y="18" width="8" height="3" rx="0" fill="#FFCA70"/>
<g transform="rotate(180 16 17)" shape-rendering="crispEdges">
<rect x="17" y="14" width="12" height="6" rx="0" fill="#263F52"/>
<rect x="19" y="15" width="8" height="4" rx="0" fill="#879CA4"/>
<rect x="28" y="15" width="4" height="4" rx="0" fill="#263F52"/>
</g>
</g>
<text x="558" y="546" font-size="17" font-weight="700" fill="#263F52" font-family="PingFang SC, Noto Sans CJK SC, sans-serif" text-anchor="middle">左</text>
<rect x="682" y="409" width="160" height="152" rx="8" fill="#F4EBCF" stroke="#D7CFB2" stroke-width="1"/>
<g transform="translate(712 424) scale(3.1)" shape-rendering="crispEdges">
<ellipse cx="16" cy="30" rx="11" ry="3" fill="#5D9F9D" opacity="0.4"/>
<rect x="7" y="17" width="18" height="12" rx="0" fill="#263F52"/>
<rect x="9" y="18" width="14" height="10" rx="0" fill="#59CFA7"/>
<rect x="9" y="27" width="5" height="3" rx="0" fill="#263F52"/>
<rect x="19" y="27" width="5" height="3" rx="0" fill="#263F52"/>
<rect x="6" y="4" width="21" height="15" rx="0" fill="#263F52"/>
<rect x="8" y="6" width="17" height="11" rx="0" fill="#59CFA7"/>
<rect x="10" y="4" width="13" height="3" rx="0" fill="#95E8C9"/>
<path d="M12 11l4 3 4-3" fill="none" stroke="#FFF8E8" stroke-width="2" />
<rect x="14" y="18" width="7" height="3" rx="0" fill="#FFCA70"/>
<g transform="rotate(135 16 17)" shape-rendering="crispEdges">
<rect x="17" y="14" width="12" height="6" rx="0" fill="#263F52"/>
<rect x="19" y="15" width="8" height="4" rx="0" fill="#879CA4"/>
<rect x="28" y="15" width="4" height="4" rx="0" fill="#263F52"/>
</g>
</g>
<text x="762" y="546" font-size="17" font-weight="700" fill="#263F52" font-family="PingFang SC, Noto Sans CJK SC, sans-serif" text-anchor="middle">左下</text>
<rect x="912" y="120" width="448" height="510" rx="13" fill="#FFFFFF" stroke="#263F52" stroke-width="2"/>
<text x="930" y="151" font-size="20" font-weight="700" fill="#263F52" font-family="PingFang SC, Noto Sans CJK SC, sans-serif">敌人与阵营</text>
<text x="930" y="174" font-size="13" font-weight="400" fill="#5D7480" font-family="PingFang SC, Noto Sans CJK SC, sans-serif">三敌靠剪影区分；相同珊瑚红只标记敌方</text>
<rect x="932" y="187" width="408" height="116" rx="8" fill="#F4EBCF" stroke="#D7CFB2" stroke-width="1"/>
<g transform="translate(957 200) scale(2.7)" shape-rendering="crispEdges">
<ellipse cx="16" cy="31" rx="12" ry="3" fill="#A64F65" opacity="0.25"/>
<rect x="8" y="6" width="17" height="11" rx="0" fill="#263F52"/>
<rect x="10" y="7" width="13" height="9" rx="0" fill="#EF746B"/>
<rect x="7" y="5" width="19" height="4" rx="0" fill="#A64F65"/>
<rect x="11" y="11" width="3" height="2" rx="0" fill="#FFF8E8"/>
<rect x="9" y="18" width="15" height="11" rx="0" fill="#263F52"/>
<rect x="11" y="19" width="11" height="8" rx="0" fill="#A64F65"/>
<rect x="23" y="20" width="9" height="4" rx="0" fill="#263F52"/>
</g>
<text x="1072" y="232" font-size="21" font-weight="700" fill="#263F52" font-family="PingFang SC, Noto Sans CJK SC, sans-serif">步兵</text>
<text x="1072" y="265" font-size="15" font-weight="400" fill="#5D7480" font-family="PingFang SC, Noto Sans CJK SC, sans-serif">窄帽 + 短枪</text>
<rect x="932" y="322" width="408" height="116" rx="8" fill="#F4EBCF" stroke="#D7CFB2" stroke-width="1"/>
<g transform="translate(957 335) scale(2.7)" shape-rendering="crispEdges">
<ellipse cx="16" cy="31" rx="12" ry="3" fill="#A64F65" opacity="0.25"/>
<path d="M6 13L21 3l7 14z" fill="#263F52" />
<path d="M10 12l11-6 4 9z" fill="#EF746B" />
<rect x="13" y="16" width="15" height="12" rx="0" fill="#263F52"/>
<rect x="15" y="18" width="11" height="9" rx="0" fill="#EF746B"/>
<path d="M24 20l8 3-8 4z" fill="#A64F65" stroke="#263F52" stroke-width="1" />
<rect x="12" y="28" width="5" height="3" rx="0" fill="#263F52"/>
<rect x="24" y="27" width="5" height="3" rx="0" fill="#263F52"/>
</g>
<text x="1072" y="367" font-size="21" font-weight="700" fill="#263F52" font-family="PingFang SC, Noto Sans CJK SC, sans-serif">突击兵</text>
<text x="1072" y="400" font-size="15" font-weight="400" fill="#5D7480" font-family="PingFang SC, Noto Sans CJK SC, sans-serif">前倾三角</text>
<rect x="932" y="457" width="408" height="116" rx="8" fill="#F4EBCF" stroke="#D7CFB2" stroke-width="1"/>
<g transform="translate(957 470) scale(2.7)" shape-rendering="crispEdges">
<ellipse cx="16" cy="31" rx="12" ry="3" fill="#A64F65" opacity="0.25"/>
<rect x="5" y="5" width="23" height="14" rx="0" fill="#263F52"/>
<rect x="7" y="7" width="19" height="10" rx="0" fill="#A64F65"/>
<rect x="11" y="9" width="12" height="4" rx="0" fill="#EF746B"/>
<rect x="2" y="17" width="29" height="12" rx="0" fill="#263F52"/>
<rect x="4" y="18" width="6" height="9" rx="0" fill="#EF746B"/>
<rect x="23" y="18" width="6" height="9" rx="0" fill="#EF746B"/>
<rect x="11" y="18" width="11" height="9" rx="0" fill="#A64F65"/>
<rect x="11" y="29" width="6" height="3" rx="0" fill="#263F52"/>
<rect x="22" y="29" width="6" height="3" rx="0" fill="#263F52"/>
</g>
<text x="1072" y="502" font-size="21" font-weight="700" fill="#263F52" font-family="PingFang SC, Noto Sans CJK SC, sans-serif">重装兵</text>
<text x="1072" y="535" font-size="15" font-weight="400" fill="#5D7480" font-family="PingFang SC, Noto Sans CJK SC, sans-serif">宽肩双护甲</text>
<rect x="40" y="652" width="1320" height="233" rx="13" fill="#FFFFFF" stroke="#263F52" stroke-width="2"/>
<text x="58" y="683" font-size="20" font-weight="700" fill="#263F52" font-family="PingFang SC, Noto Sans CJK SC, sans-serif">要塞指挥官 · 固定中心的通信核心</text>
<text x="58" y="706" font-size="13" font-weight="400" fill="#5D7480" font-family="PingFang SC, Noto Sans CJK SC, sans-serif">64×64 px 起点；阶段变化只加亮信号核与外环，不改变核心轮廓</text>
<g transform="translate(148 709) scale(2.25)" shape-rendering="crispEdges">
<ellipse cx="32" cy="58" rx="30" ry="6" fill="#A64F65" opacity="0.25"/>
<path d="M9 10h46l9 16-6 27H6L0 26z" fill="#263F52" />
<path d="M12 13h40l7 15-5 21H10L5 28z" fill="#A64F65" />
<rect x="1" y="7" width="12" height="7" rx="0" fill="#263F52"/>
<rect x="4" y="0" width="6" height="13" rx="0" fill="#263F52"/>
<rect x="51" y="7" width="12" height="7" rx="0" fill="#263F52"/>
<rect x="54" y="0" width="6" height="13" rx="0" fill="#263F52"/>
<rect x="10" y="21" width="13" height="23" rx="0" fill="#EF746B"/>
<rect x="41" y="21" width="13" height="23" rx="0" fill="#EF746B"/>
<path d="M32 18l14 10-5 17H23l-5-17z" fill="#263F52" />
<path d="M32 22l9 8-4 11H27l-4-11z" fill="#7DAFE8" />
<rect x="20" y="48" width="24" height="6" rx="0" fill="#72818E"/>
</g>
<g transform="translate(591 709) scale(2.25)" shape-rendering="crispEdges">
<ellipse cx="32" cy="58" rx="30" ry="6" fill="#A64F65" opacity="0.25"/>
<path d="M9 10h46l9 16-6 27H6L0 26z" fill="#263F52" />
<path d="M12 13h40l7 15-5 21H10L5 28z" fill="#A64F65" />
<rect x="1" y="7" width="12" height="7" rx="0" fill="#263F52"/>
<rect x="4" y="0" width="6" height="13" rx="0" fill="#263F52"/>
<rect x="51" y="7" width="12" height="7" rx="0" fill="#263F52"/>
<rect x="54" y="0" width="6" height="13" rx="0" fill="#263F52"/>
<rect x="10" y="21" width="13" height="23" rx="0" fill="#EF746B"/>
<rect x="41" y="21" width="13" height="23" rx="0" fill="#EF746B"/>
<path d="M32 18l14 10-5 17H23l-5-17z" fill="#263F52" />
<path d="M32 22l9 8-4 11H27l-4-11z" fill="#EF5C72" />
<rect x="20" y="48" width="24" height="6" rx="0" fill="#72818E"/>
<path d="M32 12l20 15-8 23H20l-8-23z" fill="none" stroke="#F8D76D" stroke-width="2" />
<rect x="0" y="26" width="6" height="5" rx="0" fill="#F8D76D"/>
<rect x="58" y="26" width="6" height="5" rx="0" fill="#F8D76D"/>
</g>
<text x="314" y="796" font-size="20" font-weight="700" fill="#263F52" font-family="PingFang SC, Noto Sans CJK SC, sans-serif">一阶段 · 蓝色信号核</text>
<text x="757" y="796" font-size="20" font-weight="700" fill="#263F52" font-family="PingFang SC, Noto Sans CJK SC, sans-serif">二阶段 · 红核 + 金色外环</text>
<text x="1030" y="750" font-size="18" font-weight="700" fill="#263F52" font-family="PingFang SC, Noto Sans CJK SC, sans-serif">形体 / 攻击提示</text>
<text x="1030" y="787" font-size="15" font-weight="500" fill="#263F52" font-family="PingFang SC, Noto Sans CJK SC, sans-serif">固定不移动；单发 → 三发扇形</text>
<text x="1030" y="815" font-size="15" font-weight="400" fill="#5D7480" font-family="PingFang SC, Noto Sans CJK SC, sans-serif">见 04 战斗特效原型</text>
</svg>
