<svg xmlns="http://www.w3.org/2000/svg" width="1400" height="860" viewBox="0 0 1400 860">
<title>战斗特效与可读性原型</title>
<rect width="100%" height="100%" fill="#FFF8E8"/>
<rect width="100%" height="9" fill="#59CFA7"/>
<text x="42" y="62" font-size="32" font-weight="800" fill="#263F52" font-family="PingFang SC, Noto Sans CJK SC, sans-serif">04 战斗特效原型</text>
<text x="43" y="92" font-size="16" font-weight="400" fill="#5D7480" font-family="PingFang SC, Noto Sans CJK SC, sans-serif">源像素示意｜双方弹幕用形状 + 颜色双重编码｜预警形状与最终判定一致</text>
<rect x="40" y="120" width="420" height="211" rx="13" fill="#FFFFFF" stroke="#263F52" stroke-width="2"/>
<text x="58" y="151" font-size="20" font-weight="700" fill="#263F52" font-family="PingFang SC, Noto Sans CJK SC, sans-serif">玩家子弹</text>
<text x="58" y="174" font-size="13" font-weight="400" fill="#5D7480" font-family="PingFang SC, Noto Sans CJK SC, sans-serif">金黄短尖头 / 深色外缘</text>
<rect x="57" y="190" width="386" height="124" rx="0" fill="#F4EBCF"/>
<path d="M185 259l56-17v10l-56 17z" fill="#F8D76D" stroke="#263F52" stroke-width="4" />
<path d="M258 246l46-13v8l-46 13z" fill="#F8D76D" stroke="#263F52" stroke-width="3" />
<rect x="480" y="120" width="420" height="211" rx="13" fill="#FFFFFF" stroke="#263F52" stroke-width="2"/>
<text x="498" y="151" font-size="20" font-weight="700" fill="#263F52" font-family="PingFang SC, Noto Sans CJK SC, sans-serif">敌方子弹</text>
<text x="498" y="174" font-size="13" font-weight="400" fill="#5D7480" font-family="PingFang SC, Noto Sans CJK SC, sans-serif">珊瑚红圆点 / 深色外缘</text>
<rect x="497" y="190" width="386" height="124" rx="0" fill="#F4EBCF"/>
<circle cx="628" cy="262" r="13" fill="#EF5C72" stroke="#263F52" stroke-width="4"/>
<circle cx="690" cy="243" r="10" fill="#EF5C72" stroke="#263F52" stroke-width="4"/>
<circle cx="751" cy="267" r="13" fill="#EF5C72" stroke="#263F52" stroke-width="4"/>
<rect x="920" y="120" width="420" height="211" rx="13" fill="#FFFFFF" stroke="#263F52" stroke-width="2"/>
<text x="938" y="151" font-size="20" font-weight="700" fill="#263F52" font-family="PingFang SC, Noto Sans CJK SC, sans-serif">步兵射击前摇</text>
<text x="938" y="174" font-size="13" font-weight="400" fill="#5D7480" font-family="PingFang SC, Noto Sans CJK SC, sans-serif">枪口闪点 + 短线</text>
<rect x="937" y="190" width="386" height="124" rx="0" fill="#F4EBCF"/>
<g transform="translate(1035 200) scale(2.4)" shape-rendering="crispEdges">
<ellipse cx="16" cy="31" rx="12" ry="3" fill="#A64F65" opacity="0.25"/>
<rect x="8" y="6" width="17" height="11" rx="0" fill="#263F52"/>
<rect x="10" y="7" width="13" height="9" rx="0" fill="#EF746B"/>
<rect x="7" y="5" width="19" height="4" rx="0" fill="#A64F65"/>
<rect x="11" y="11" width="3" height="2" rx="0" fill="#FFF8E8"/>
<rect x="9" y="18" width="15" height="11" rx="0" fill="#263F52"/>
<rect x="11" y="19" width="11" height="8" rx="0" fill="#A64F65"/>
<rect x="23" y="20" width="9" height="4" rx="0" fill="#263F52"/>
</g>
<path d="M1140 257h89" fill="none" stroke="#EF5C72" stroke-width="5" stroke-dasharray="12 8"/>
<circle cx="1138" cy="257" r="8" fill="#EF5C72" stroke="#263F52" stroke-width="3"/>
<rect x="40" y="352" width="420" height="211" rx="13" fill="#FFFFFF" stroke="#263F52" stroke-width="2"/>
<text x="58" y="383" font-size="20" font-weight="700" fill="#263F52" font-family="PingFang SC, Noto Sans CJK SC, sans-serif">突击兵蓄力</text>
<text x="58" y="406" font-size="13" font-weight="400" fill="#5D7480" font-family="PingFang SC, Noto Sans CJK SC, sans-serif">面前短扇形</text>
<rect x="57" y="422" width="386" height="124" rx="0" fill="#F4EBCF"/>
<g transform="translate(162 434) scale(2.2)" shape-rendering="crispEdges">
<ellipse cx="16" cy="31" rx="12" ry="3" fill="#A64F65" opacity="0.25"/>
<path d="M6 13L21 3l7 14z" fill="#263F52" />
<path d="M10 12l11-6 4 9z" fill="#EF746B" />
<rect x="13" y="16" width="15" height="12" rx="0" fill="#263F52"/>
<rect x="15" y="18" width="11" height="9" rx="0" fill="#EF746B"/>
<path d="M24 20l8 3-8 4z" fill="#A64F65" stroke="#263F52" stroke-width="1" />
<rect x="12" y="28" width="5" height="3" rx="0" fill="#263F52"/>
<rect x="24" y="27" width="5" height="3" rx="0" fill="#263F52"/>
</g>
<path d="M256 460Q355 470 353 522L259 499z" fill="#F7B3A7" stroke="#EF5C72" stroke-width="3" />
<rect x="480" y="352" width="420" height="211" rx="13" fill="#FFFFFF" stroke="#263F52" stroke-width="2"/>
<text x="498" y="383" font-size="20" font-weight="700" fill="#263F52" font-family="PingFang SC, Noto Sans CJK SC, sans-serif">首领三发预警</text>
<text x="498" y="406" font-size="13" font-weight="400" fill="#5D7480" font-family="PingFang SC, Noto Sans CJK SC, sans-serif">18° 扇形，发射前显示</text>
<rect x="497" y="422" width="386" height="124" rx="0" fill="#F4EBCF"/>
<path d="M603 514L765 456A172 172 0 0 1 765 571z" fill="#F7B3A7" stroke="#EF5C72" stroke-width="3" />
<circle cx="758" cy="468" r="6" fill="#EF5C72" stroke="#263F52" stroke-width="2"/>
<circle cx="758" cy="513" r="6" fill="#EF5C72" stroke="#263F52" stroke-width="2"/>
<circle cx="758" cy="553" r="6" fill="#EF5C72" stroke="#263F52" stroke-width="2"/>
<rect x="920" y="352" width="420" height="211" rx="13" fill="#FFFFFF" stroke="#263F52" stroke-width="2"/>
<text x="938" y="383" font-size="20" font-weight="700" fill="#263F52" font-family="PingFang SC, Noto Sans CJK SC, sans-serif">手雷爆炸</text>
<text x="938" y="406" font-size="13" font-weight="400" fill="#5D7480" font-family="PingFang SC, Noto Sans CJK SC, sans-serif">橙黄范围环 / 一次伤害</text>
<rect x="937" y="422" width="386" height="124" rx="0" fill="#F4EBCF"/>
<circle cx="1130" cy="484" r="50" fill="none" stroke="#F0BB58" stroke-width="8"/>
<circle cx="1130" cy="484" r="34" fill="none" stroke="#EF5C72" stroke-width="5"/>
<rect x="1086" y="460" width="13" height="9" rx="0" fill="#F8D76D"/>
<rect x="1163" y="445" width="13" height="9" rx="0" fill="#F8D76D"/>
<rect x="1178" y="506" width="13" height="9" rx="0" fill="#F8D76D"/>
<rect x="1105" y="527" width="13" height="9" rx="0" fill="#F8D76D"/>
<rect x="40" y="584" width="420" height="211" rx="13" fill="#FFFFFF" stroke="#263F52" stroke-width="2"/>
<text x="58" y="615" font-size="20" font-weight="700" fill="#263F52" font-family="PingFang SC, Noto Sans CJK SC, sans-serif">治疗反馈</text>
<text x="58" y="638" font-size="13" font-weight="400" fill="#5D7480" font-family="PingFang SC, Noto Sans CJK SC, sans-serif">青绿十字上浮</text>
<rect x="57" y="654" width="386" height="124" rx="0" fill="#F4EBCF"/>
<g transform="translate(190 730) scale(1)" shape-rendering="crispEdges">
<rect x="-5" y="-18" width="10" height="36" rx="0" fill="#59CFA7"/>
<rect x="-18" y="-5" width="36" height="10" rx="0" fill="#59CFA7"/>
</g>
<g transform="translate(250 703) scale(1.4)" shape-rendering="crispEdges">
<rect x="-5" y="-18" width="10" height="36" rx="0" fill="#59CFA7"/>
<rect x="-18" y="-5" width="36" height="10" rx="0" fill="#59CFA7"/>
</g>
<g transform="translate(316 739) scale(0.8)" shape-rendering="crispEdges">
<rect x="-5" y="-18" width="10" height="36" rx="0" fill="#59CFA7"/>
<rect x="-18" y="-5" width="36" height="10" rx="0" fill="#59CFA7"/>
</g>
<rect x="480" y="584" width="420" height="211" rx="13" fill="#FFFFFF" stroke="#263F52" stroke-width="2"/>
<text x="498" y="615" font-size="20" font-weight="700" fill="#263F52" font-family="PingFang SC, Noto Sans CJK SC, sans-serif">情报上传</text>
<text x="498" y="638" font-size="13" font-weight="400" fill="#5D7480" font-family="PingFang SC, Noto Sans CJK SC, sans-serif">蓝色数据片上行</text>
<rect x="497" y="654" width="386" height="124" rx="0" fill="#F4EBCF"/>
<g transform="translate(644 742) scale(1.4)" shape-rendering="crispEdges">
<path d="M5 4h17v17l-5 5H5z" fill="#263F52" />
<path d="M7 6h13v13l-5 5H7z" fill="#7DAFE8" />
<rect x="10" y="9" width="7" height="3" rx="0" fill="#FFF8E8"/>
<rect x="10" y="15" width="7" height="3" rx="0" fill="#FFF8E8"/>
</g>
<g transform="translate(690 715) scale(1.4)" shape-rendering="crispEdges">
<path d="M5 4h17v17l-5 5H5z" fill="#263F52" />
<path d="M7 6h13v13l-5 5H7z" fill="#7DAFE8" />
<rect x="10" y="9" width="7" height="3" rx="0" fill="#FFF8E8"/>
<rect x="10" y="15" width="7" height="3" rx="0" fill="#FFF8E8"/>
</g>
<g transform="translate(733 684) scale(1.4)" shape-rendering="crispEdges">
<path d="M5 4h17v17l-5 5H5z" fill="#263F52" />
<path d="M7 6h13v13l-5 5H7z" fill="#7DAFE8" />
<rect x="10" y="9" width="7" height="3" rx="0" fill="#FFF8E8"/>
<rect x="10" y="15" width="7" height="3" rx="0" fill="#FFF8E8"/>
</g>
<path d="M784 758v-84m0 0l-12 12m12-12l12 12" fill="none" stroke="#7DAFE8" stroke-width="4" />
<rect x="920" y="584" width="420" height="211" rx="13" fill="#FFFFFF" stroke="#263F52" stroke-width="2"/>
<text x="938" y="615" font-size="20" font-weight="700" fill="#263F52" font-family="PingFang SC, Noto Sans CJK SC, sans-serif">玩家受击</text>
<text x="938" y="638" font-size="13" font-weight="400" fill="#5D7480" font-family="PingFang SC, Noto Sans CJK SC, sans-serif">亮边 + 短时闪烁</text>
<rect x="937" y="654" width="386" height="124" rx="0" fill="#F4EBCF"/>
<g transform="translate(1085 665) scale(3)" shape-rendering="crispEdges">
<ellipse cx="16" cy="30" rx="11" ry="3" fill="#5D9F9D" opacity="0.4"/>
<rect x="7" y="17" width="18" height="12" rx="0" fill="#263F52"/>
<rect x="9" y="18" width="14" height="10" rx="0" fill="#59CFA7"/>
<rect x="9" y="27" width="5" height="3" rx="0" fill="#263F52"/>
<rect x="19" y="27" width="5" height="3" rx="0" fill="#263F52"/>
<rect x="6" y="4" width="21" height="15" rx="0" fill="#263F52"/>
<rect x="8" y="6" width="17" height="11" rx="0" fill="#59CFA7"/>
<rect x="10" y="4" width="13" height="3" rx="0" fill="#95E8C9"/>
<path d="M12 11l4 3 4-3" fill="none" stroke="#FFF8E8" stroke-width="2" />
<rect x="14" y="18" width="7" height="3" rx="0" fill="#FFCA70"/>
<g transform="rotate(90 16 17)" shape-rendering="crispEdges">
<rect x="17" y="14" width="12" height="6" rx="0" fill="#263F52"/>
<rect x="19" y="15" width="8" height="4" rx="0" fill="#879CA4"/>
<rect x="28" y="15" width="4" height="4" rx="0" fill="#263F52"/>
</g>
</g>
<path d="M1080 669h87v89h-87z" fill="none" stroke="#FFF8E8" stroke-width="5" stroke-dasharray="13 9"/>
<text x="1205" y="721" font-size="18" font-weight="700" fill="#EF5C72" font-family="PingFang SC, Noto Sans CJK SC, sans-serif">0.6 s</text>
</svg>
