<svg xmlns="http://www.w3.org/2000/svg" width="24" height="24" viewBox="0 0 24 24" shape-rendering="crispEdges">
<rect x="0" y="0" width="24" height="24" fill="#889293"/>
<rect x="7" y="9" width="2" height="1" fill="#a6afb0"/>
<rect x="23" y="12" width="2" height="1" fill="#727d80"/>
<rect x="4" y="2" width="2" height="1" fill="#a6afb0"/>
<rect x="0" y="12" width="2" height="1" fill="#727d80"/>
<rect x="1" y="7" width="2" height="1" fill="#727d80"/>
<rect x="8" y="5" width="2" height="1" fill="#a6afb0"/>
<rect x="8" y="6" width="2" height="1" fill="#a6afb0"/>
<rect x="20" y="8" width="2" height="1" fill="#727d80"/>
<rect x="6" y="5" width="2" height="1" fill="#727d80"/>
<rect x="9" y="20" width="2" height="1" fill="#727d80"/>
<rect x="2" y="19" width="2" height="1" fill="#727d80"/>
<rect x="21" y="12" width="2" height="1" fill="#a6afb0"/>
<rect x="0" y="23" width="24" height="1" fill="#727d80"/>
<rect x="23" y="0" width="1" height="24" fill="#727d80"/>
<rect x="2" y="2" width="1" height="1" fill="#a6afb0"/>
</svg>
